<svg width="517pt" height="189pt" viewBox="0.00 0.00 517.00 189.00" xmlns="http://www.w3.org/2000/svg" xmlns:xlink="http://www.w3.org/1999/xlink">
<g id="graph0" class="graph" transform="scale(1 1) rotate(0) translate(4 185)">
<title>%3</title>
<polygon fill="#ffffff" stroke="transparent" points="-4,4 -4,-185 513,-185 513,4 -4,4"></polygon>
<g id="clust1" class="cluster">
<title>cluster_chain</title>
<polygon fill="none" stroke="transparent" points="8,-8 8,-173 373,-173 373,-8 8,-8"></polygon>
<text text-anchor="middle" x="190.5" y="-15.8" font-family="Times,serif" font-size="14.00" fill="#000000">irreversible blocks</text>
</g>
<g id="clust3" class="cluster">
<title>cluster_forkdb</title>
<polygon fill="none" stroke="#000000" stroke-dasharray="5,2" points="394,-8 394,-131 507,-131 507,-8 394,-8"></polygon>
<text text-anchor="middle" x="450.5" y="-15.8" font-family="Times,serif" font-size="14.00" fill="#000000">reversible blocks</text>
</g>
<!-- b0 -->
<g id="node1" class="node">
<title>b0</title>
<polygon fill="none" stroke="transparent" points="40,-98 16,-98 16,-74 40,-74 40,-98"></polygon>
<text text-anchor="middle" x="28" y="-83.2" font-family="Times,serif" font-size="11.00" fill="#000000">...</text>
</g>
<!-- b1 -->
<g id="node2" class="node">
<title>b1</title>
<polygon fill="#d3d3d3" stroke="#000000" points="101,-98 77,-98 77,-74 101,-74 101,-98"></polygon>
<text text-anchor="middle" x="89" y="-83.2" font-family="Times,serif" font-size="11.00" fill="#000000">49</text>
</g>
<!-- b0&#45;&gt;b1 -->
<g id="edge1" class="edge">
<title>b0-&gt;b1</title>
<path fill="none" stroke="#000000" d="M45.1025,-86C55.2526,-86 67.8731,-86 76.9734,-86"></path>
<polygon fill="#000000" stroke="#000000" points="45.0517,-84.2501 40.0516,-86 45.0516,-87.7501 45.0517,-84.2501"></polygon>
</g>
<!-- b2 -->
<g id="node3" class="node">
<title>b2</title>
<polygon fill="#d3d3d3" stroke="#000000" points="162,-98 138,-98 138,-74 162,-74 162,-98"></polygon>
<text text-anchor="middle" x="150" y="-83.2" font-family="Times,serif" font-size="11.00" fill="#000000">50</text>
</g>
<!-- b1&#45;&gt;b2 -->
<g id="edge2" class="edge">
<title>b1-&gt;b2</title>
<path fill="none" stroke="#000000" d="M106.1025,-86C116.2526,-86 128.8731,-86 137.9734,-86"></path>
<polygon fill="#000000" stroke="#000000" points="106.0517,-84.2501 101.0516,-86 106.0516,-87.7501 106.0517,-84.2501"></polygon>
</g>
<!-- b3 -->
<g id="node4" class="node">
<title>b3</title>
<polygon fill="#d3d3d3" stroke="#000000" points="223,-98 199,-98 199,-74 223,-74 223,-98"></polygon>
<text text-anchor="middle" x="211" y="-83.2" font-family="Times,serif" font-size="11.00" fill="#000000">51</text>
</g>
<!-- b2&#45;&gt;b3 -->
<g id="edge3" class="edge">
<title>b2-&gt;b3</title>
<path fill="none" stroke="#000000" d="M167.1025,-86C177.2526,-86 189.8731,-86 198.9734,-86"></path>
<polygon fill="#000000" stroke="#000000" points="167.0517,-84.2501 162.0516,-86 167.0516,-87.7501 167.0517,-84.2501"></polygon>
</g>
<!-- a1b -->
<g id="node5" class="node">
<title>a1b</title>
<polygon fill="#d3d3d3" stroke="#000000" points="294,-123 270,-123 270,-99 294,-99 294,-123"></polygon>
<text text-anchor="middle" x="282" y="-114.2" font-family="Times,serif" font-size="11.00" fill="#000000">52b</text>
<text text-anchor="middle" x="282" y="-102.2" font-family="Times,serif" font-size="11.00" fill="#000000">(inv)</text>
</g>
<!-- b3&#45;&gt;a1b -->
<g id="edge4" class="edge">
<title>b3-&gt;a1b</title>
<path fill="none" stroke="#000000" d="M227.894,-91.9486C240.7341,-96.4698 258.1009,-102.5848 269.6581,-106.6543"></path>
<polygon fill="#000000" stroke="#000000" points="228.3416,-90.2509 223.0442,-90.2409 227.1791,-93.5523 228.3416,-90.2509"></polygon>
<text text-anchor="start" x="241" y="-102.8" font-family="Times,serif" font-size="14.00" fill="#ff0000">X</text>
</g>
<!-- a1c -->
<g id="node8" class="node">
<title>a1c</title>
<polygon fill="#d3d3d3" stroke="#000000" points="294,-63 270,-63 270,-39 294,-39 294,-63"></polygon>
<text text-anchor="middle" x="282" y="-48.2" font-family="Times,serif" font-size="11.00" fill="#000000">52c</text>
</g>
<!-- b3&#45;&gt;a1c -->
<g id="edge5" class="edge">
<title>b3-&gt;a1c</title>
<path fill="none" stroke="#000000" d="M227.5542,-77.8395C240.4263,-71.4941 257.9987,-62.8316 269.6581,-57.084"></path>
<polygon fill="#000000" stroke="#000000" points="226.7551,-76.2823 223.0442,-80.0627 228.3027,-79.4216 226.7551,-76.2823"></polygon>
<text text-anchor="middle" x="246.5" y="-74.8" font-family="Times,serif" font-size="14.00" fill="#000000"> </text>
</g>
<!-- a2c -->
<g id="node6" class="node">
<title>a2c</title>
<polygon fill="#d3d3d3" stroke="#000000" points="365,-123 341,-123 341,-99 365,-99 365,-123"></polygon>
<text text-anchor="middle" x="353" y="-114.2" font-family="Times,serif" font-size="11.00" fill="#000000">53b</text>
<text text-anchor="middle" x="353" y="-102.2" font-family="Times,serif" font-size="11.00" fill="#000000">(inv)</text>
</g>
<!-- a1b&#45;&gt;a2c -->
<g id="edge8" class="edge">
<title>a1b-&gt;a2c</title>
<path fill="none" stroke="#000000" d="M299.236,-111C312.041,-111 329.2032,-111 340.6581,-111"></path>
<polygon fill="#000000" stroke="#000000" points="299.0442,-109.2501 294.0442,-111 299.0441,-112.7501 299.0442,-109.2501"></polygon>
<text text-anchor="start" x="312" y="-114.8" font-family="Times,serif" font-size="14.00" fill="#ff0000">X</text>
</g>
<!-- a2b -->
<g id="node7" class="node">
<title>a2b</title>
<polygon fill="#d3d3d3" stroke="#000000" points="365,-165 341,-165 341,-141 365,-141 365,-165"></polygon>
<text text-anchor="middle" x="353" y="-156.2" font-family="Times,serif" font-size="11.00" fill="#000000">53a</text>
<text text-anchor="middle" x="353" y="-144.2" font-family="Times,serif" font-size="11.00" fill="#000000">(inv)</text>
</g>
<!-- a1b&#45;&gt;a2b -->
<g id="edge7" class="edge">
<title>a1b-&gt;a2b</title>
<path fill="none" stroke="#000000" d="M298.5542,-120.7926C311.4263,-128.4071 328.9987,-138.802 340.6581,-145.6992"></path>
<polygon fill="#000000" stroke="#000000" points="299.2386,-119.1643 294.0442,-118.1247 297.4566,-122.1767 299.2386,-119.1643"></polygon>
<text text-anchor="start" x="312" y="-137.8" font-family="Times,serif" font-size="14.00" fill="#ff0000">X</text>
</g>
<!-- a3e -->
<g id="node11" class="node">
<title>a3e</title>
<polygon fill="#d3d3d3" stroke="#000000" points="432,-123 408,-123 408,-99 432,-99 432,-123"></polygon>
<text text-anchor="middle" x="420" y="-108.2" font-family="Times,serif" font-size="11.00" fill="#000000">54c</text>
</g>
<!-- a2c&#45;&gt;a3e -->
<!-- a1c&#45;&gt;a1b -->
<!-- a2d -->
<g id="node9" class="node">
<title>a2d</title>
<polygon fill="#d3d3d3" stroke="#000000" points="365,-63 341,-63 341,-39 365,-39 365,-63"></polygon>
<text text-anchor="middle" x="353" y="-54.2" font-family="Times,serif" font-size="11.00" fill="#000000">53c</text>
<text text-anchor="middle" x="353" y="-42.2" font-family="Times,serif" font-size="11.00" fill="#000000">(lib)</text>
</g>
<!-- a1c&#45;&gt;a2d -->
<g id="edge9" class="edge">
<title>a1c-&gt;a2d</title>
<path fill="none" stroke="#000000" d="M299.236,-51C312.041,-51 329.2032,-51 340.6581,-51"></path>
<polygon fill="#000000" stroke="#000000" points="299.0442,-49.2501 294.0442,-51 299.0441,-52.7501 299.0442,-49.2501"></polygon>
</g>
<!-- a3d -->
<g id="node10" class="node">
<title>a3d</title>
<polygon fill="#d3d3d3" stroke="#000000" points="432,-63 408,-63 408,-39 432,-39 432,-63"></polygon>
<text text-anchor="middle" x="420" y="-48.2" font-family="Times,serif" font-size="11.00" fill="#000000">54d</text>
</g>
<!-- a2d&#45;&gt;a3d -->
<g id="edge14" class="edge">
<title>a2d-&gt;a3d</title>
<path fill="none" stroke="#000000" d="M370.4074,-51C382.1409,-51 397.3291,-51 407.7891,-51"></path>
<polygon fill="#000000" stroke="#000000" points="370.2889,-49.2501 365.2888,-51 370.2888,-52.7501 370.2889,-49.2501"></polygon>
</g>
<!-- a2d&#45;&gt;a3e -->
<g id="edge13" class="edge">
<title>a2d-&gt;a3e</title>
<path fill="none" stroke="#000000" d="M369.1528,-65.4652C381.0401,-76.1106 396.9521,-90.3601 407.7891,-100.0648"></path>
<polygon fill="#000000" stroke="#000000" points="370.1811,-64.0369 365.2888,-62.0049 367.8461,-66.6442 370.1811,-64.0369"></polygon>
</g>
<!-- a3d&#45;&gt;a3e -->
<!-- a4e -->
<g id="node12" class="node">
<title>a4e</title>
<polygon fill="#d3d3d3" stroke="#000000" points="493,-123 469,-123 469,-99 493,-99 493,-123"></polygon>
<text text-anchor="middle" x="481" y="-114.2" font-family="Times,serif" font-size="11.00" fill="#000000">55c</text>
<text text-anchor="middle" x="481" y="-102.2" font-family="Times,serif" font-size="11.00" fill="#000000">(hb)</text>
</g>
<!-- a3e&#45;&gt;a4e -->
<g id="edge11" class="edge">
<title>a3e-&gt;a4e</title>
<path fill="none" stroke="#000000" d="M437.1025,-111C447.2526,-111 459.8731,-111 468.9734,-111"></path>
<polygon fill="#000000" stroke="#000000" points="437.0517,-109.2501 432.0516,-111 437.0516,-112.7501 437.0517,-109.2501"></polygon>
</g>
</g>
</svg>