<svg width="482pt" height="265pt" viewBox="0.00 0.00 482.00 265.00" xmlns="http://www.w3.org/2000/svg" xmlns:xlink="http://www.w3.org/1999/xlink">
<g id="graph0" class="graph" transform="scale(1 1) rotate(0) translate(4 261)">
<title>%3</title>
<polygon fill="#ffffff" stroke="transparent" points="-4,4 -4,-261 478,-261 478,4 -4,4"></polygon>
<g id="clust1" class="cluster">
<title>cluster_node_afr</title>
<polygon fill="none" stroke="#000000" points="8,-8 8,-83 466,-83 466,-8 8,-8"></polygon>
<text text-anchor="middle" x="52.5" y="-67.8" font-family="Times,serif" font-size="14.00" fill="#000000">Node (after):</text>
</g>
<g id="clust2" class="cluster">
<title>cluster_peer</title>
<polygon fill="none" stroke="transparent" points="8,-91 8,-166 466,-166 466,-91 8,-91"></polygon>
<text text-anchor="middle" x="30.5" y="-150.8" font-family="Times,serif" font-size="14.00" fill="#000000">Peer:</text>
</g>
<g id="clust3" class="cluster">
<title>cluster_node_bfr</title>
<polygon fill="none" stroke="#000000" points="8,-174 8,-249 466,-249 466,-174 8,-174"></polygon>
<text text-anchor="middle" x="58.5" y="-233.8" font-family="Times,serif" font-size="14.00" fill="#000000">Node (before):</text>
</g>
<!-- 87a -->
<g id="node1" class="node">
<title>87a</title>
<polygon fill="none" stroke="transparent" points="52,-52 16,-52 16,-16 52,-16 52,-52"></polygon>
<text text-anchor="middle" x="34" y="-30.3" font-family="Times,serif" font-size="14.00" fill="#000000">...</text>
</g>
<!-- 88a -->
<g id="node2" class="node">
<title>88a</title>
<polygon fill="#d3d3d3" stroke="#000000" points="110,-52 74,-52 74,-16 110,-16 110,-52"></polygon>
<text text-anchor="middle" x="92" y="-30.3" font-family="Times,serif" font-size="14.00" fill="#000000">88</text>
</g>
<!-- 87a&#45;&gt;88a -->
<g id="edge1" class="edge">
<title>87a-&gt;88a</title>
<path fill="none" stroke="#000000" d="M59.0893,-34C64.027,-34 69.1187,-34 73.7778,-34"></path>
<polygon fill="#000000" stroke="#000000" points="59.0337,-31.5501 52.0336,-34 59.0336,-36.4501 59.0337,-31.5501"></polygon>
</g>
<!-- 89a -->
<g id="node3" class="node">
<title>89a</title>
<polygon fill="#d3d3d3" stroke="#000000" points="168,-52 132,-52 132,-16 168,-16 168,-52"></polygon>
<text text-anchor="middle" x="150" y="-30.3" font-family="Times,serif" font-size="14.00" fill="#000000">89</text>
</g>
<!-- 88a&#45;&gt;89a -->
<g id="edge2" class="edge">
<title>88a-&gt;89a</title>
<path fill="none" stroke="#000000" d="M117.0893,-34C122.027,-34 127.1187,-34 131.7778,-34"></path>
<polygon fill="#000000" stroke="#000000" points="117.0337,-31.5501 110.0336,-34 117.0336,-36.4501 117.0337,-31.5501"></polygon>
</g>
<!-- 90a -->
<g id="node4" class="node">
<title>90a</title>
<polygon fill="#d3d3d3" stroke="#000000" points="226,-52 190,-52 190,-16 226,-16 226,-52"></polygon>
<text text-anchor="middle" x="208" y="-30.3" font-family="Times,serif" font-size="14.00" fill="#000000">90</text>
</g>
<!-- 89a&#45;&gt;90a -->
<g id="edge3" class="edge">
<title>89a-&gt;90a</title>
<path fill="none" stroke="#000000" d="M175.0893,-34C180.027,-34 185.1187,-34 189.7778,-34"></path>
<polygon fill="#000000" stroke="#000000" points="175.0337,-31.5501 168.0336,-34 175.0336,-36.4501 175.0337,-31.5501"></polygon>
</g>
<!-- 91a -->
<g id="node5" class="node">
<title>91a</title>
<polygon fill="#d3d3d3" stroke="#000000" points="284,-52 248,-52 248,-16 284,-16 284,-52"></polygon>
<text text-anchor="middle" x="266" y="-30.3" font-family="Times,serif" font-size="14.00" fill="#000000">91</text>
</g>
<!-- 90a&#45;&gt;91a -->
<g id="edge4" class="edge">
<title>90a-&gt;91a</title>
<path fill="none" stroke="#000000" d="M233.0893,-34C238.027,-34 243.1187,-34 247.7778,-34"></path>
<polygon fill="#000000" stroke="#000000" points="233.0337,-31.5501 226.0336,-34 233.0336,-36.4501 233.0337,-31.5501"></polygon>
</g>
<!-- 92a -->
<g id="node6" class="node">
<title>92a</title>
<polygon fill="#d3d3d3" stroke="#000000" points="342,-52 306,-52 306,-16 342,-16 342,-52"></polygon>
<text text-anchor="middle" x="324" y="-37.8" font-family="Times,serif" font-size="12.75" fill="#000000">92</text>
<text text-anchor="middle" x="324" y="-23.8" font-family="Times,serif" font-size="12.75" fill="#000000">lib/hb</text>
</g>
<!-- 91a&#45;&gt;92a -->
<g id="edge5" class="edge">
<title>91a-&gt;92a</title>
<path fill="none" stroke="#000000" d="M291.0893,-34C296.027,-34 301.1187,-34 305.7778,-34"></path>
<polygon fill="#000000" stroke="#000000" points="291.0337,-31.5501 284.0336,-34 291.0336,-36.4501 291.0337,-31.5501"></polygon>
</g>
<!-- 93a -->
<g id="node7" class="node">
<title>93a</title>
<polygon fill="none" stroke="transparent" points="400,-52 364,-52 364,-16 400,-16 400,-52"></polygon>
</g>
<!-- 92a&#45;&gt;93a -->
<!-- 94a -->
<g id="node8" class="node">
<title>94a</title>
<polygon fill="none" stroke="transparent" points="458,-52 422,-52 422,-16 458,-16 458,-52"></polygon>
</g>
<!-- 93a&#45;&gt;94a -->
<!-- 87p -->
<g id="node9" class="node">
<title>87p</title>
<polygon fill="none" stroke="transparent" points="52,-135 16,-135 16,-99 52,-99 52,-135"></polygon>
<text text-anchor="middle" x="34" y="-113.3" font-family="Times,serif" font-size="14.00" fill="#000000">...</text>
</g>
<!-- 88p -->
<g id="node10" class="node">
<title>88p</title>
<polygon fill="#d3d3d3" stroke="#000000" points="110,-135 74,-135 74,-99 110,-99 110,-135"></polygon>
<text text-anchor="middle" x="92" y="-113.3" font-family="Times,serif" font-size="14.00" fill="#000000">88</text>
</g>
<!-- 87p&#45;&gt;88p -->
<g id="edge8" class="edge">
<title>87p-&gt;88p</title>
<path fill="none" stroke="#000000" d="M59.0893,-117C64.027,-117 69.1187,-117 73.7778,-117"></path>
<polygon fill="#000000" stroke="#000000" points="59.0337,-114.5501 52.0336,-117 59.0336,-119.4501 59.0337,-114.5501"></polygon>
</g>
<!-- 89p -->
<g id="node11" class="node">
<title>89p</title>
<polygon fill="#d3d3d3" stroke="#000000" points="168,-135 132,-135 132,-99 168,-99 168,-135"></polygon>
<text text-anchor="middle" x="150" y="-113.3" font-family="Times,serif" font-size="14.00" fill="#000000">89</text>
</g>
<!-- 88p&#45;&gt;89p -->
<g id="edge9" class="edge">
<title>88p-&gt;89p</title>
<path fill="none" stroke="#000000" d="M117.0893,-117C122.027,-117 127.1187,-117 131.7778,-117"></path>
<polygon fill="#000000" stroke="#000000" points="117.0337,-114.5501 110.0336,-117 117.0336,-119.4501 117.0337,-114.5501"></polygon>
</g>
<!-- 90p -->
<g id="node12" class="node">
<title>90p</title>
<polygon fill="#d3d3d3" stroke="#000000" points="226,-135 190,-135 190,-99 226,-99 226,-135"></polygon>
<text text-anchor="middle" x="208" y="-113.3" font-family="Times,serif" font-size="14.00" fill="#000000">90</text>
</g>
<!-- 89p&#45;&gt;90p -->
<g id="edge10" class="edge">
<title>89p-&gt;90p</title>
<path fill="none" stroke="#000000" d="M175.0893,-117C180.027,-117 185.1187,-117 189.7778,-117"></path>
<polygon fill="#000000" stroke="#000000" points="175.0337,-114.5501 168.0336,-117 175.0336,-119.4501 175.0337,-114.5501"></polygon>
</g>
<!-- 91p -->
<g id="node13" class="node">
<title>91p</title>
<polygon fill="#d3d3d3" stroke="#000000" points="284,-135 248,-135 248,-99 284,-99 284,-135"></polygon>
<text text-anchor="middle" x="266" y="-113.3" font-family="Times,serif" font-size="14.00" fill="#000000">91</text>
</g>
<!-- 90p&#45;&gt;91p -->
<g id="edge11" class="edge">
<title>90p-&gt;91p</title>
<path fill="none" stroke="#000000" d="M233.0893,-117C238.027,-117 243.1187,-117 247.7778,-117"></path>
<polygon fill="#000000" stroke="#000000" points="233.0337,-114.5501 226.0336,-117 233.0336,-119.4501 233.0337,-114.5501"></polygon>
</g>
<!-- 92p -->
<g id="node14" class="node">
<title>92p</title>
<polygon fill="#d3d3d3" stroke="#000000" points="342,-135 306,-135 306,-99 342,-99 342,-135"></polygon>
<text text-anchor="middle" x="324" y="-120.8" font-family="Times,serif" font-size="14.00" fill="#000000">92</text>
<text text-anchor="middle" x="324" y="-105.8" font-family="Times,serif" font-size="14.00" fill="#000000">(lib)</text>
</g>
<!-- 91p&#45;&gt;92p -->
<g id="edge12" class="edge">
<title>91p-&gt;92p</title>
<path fill="none" stroke="#000000" d="M291.0893,-117C296.027,-117 301.1187,-117 305.7778,-117"></path>
<polygon fill="#000000" stroke="#000000" points="291.0337,-114.5501 284.0336,-117 291.0336,-119.4501 291.0337,-114.5501"></polygon>
</g>
<!-- 93p -->
<g id="node15" class="node">
<title>93p</title>
<polygon fill="#ffffff" stroke="#000000" points="400,-135 364,-135 364,-99 400,-99 400,-135"></polygon>
<text text-anchor="middle" x="382" y="-113.3" font-family="Times,serif" font-size="14.00" fill="#000000">93p</text>
</g>
<!-- 92p&#45;&gt;93p -->
<g id="edge13" class="edge">
<title>92p-&gt;93p</title>
<path fill="none" stroke="#000000" d="M349.0893,-117C354.027,-117 359.1187,-117 363.7778,-117"></path>
<polygon fill="#000000" stroke="#000000" points="349.0337,-114.5501 342.0336,-117 349.0336,-119.4501 349.0337,-114.5501"></polygon>
</g>
<!-- 94p -->
<g id="node16" class="node">
<title>94p</title>
<polygon fill="#ffffff" stroke="#000000" points="458,-135 422,-135 422,-99 458,-99 458,-135"></polygon>
<text text-anchor="middle" x="440" y="-120.8" font-family="Times,serif" font-size="14.00" fill="#000000">94p</text>
<text text-anchor="middle" x="440" y="-105.8" font-family="Times,serif" font-size="14.00" fill="#000000">(hb)</text>
</g>
<!-- 93p&#45;&gt;94p -->
<g id="edge14" class="edge">
<title>93p-&gt;94p</title>
<path fill="none" stroke="#000000" d="M407.0893,-117C412.027,-117 417.1187,-117 421.7778,-117"></path>
<polygon fill="#000000" stroke="#000000" points="407.0337,-114.5501 400.0336,-117 407.0336,-119.4501 407.0337,-114.5501"></polygon>
</g>
<!-- 87b -->
<g id="node17" class="node">
<title>87b</title>
<polygon fill="none" stroke="transparent" points="52,-218 16,-218 16,-182 52,-182 52,-218"></polygon>
<text text-anchor="middle" x="34" y="-196.3" font-family="Times,serif" font-size="14.00" fill="#000000">...</text>
</g>
<!-- 88b -->
<g id="node18" class="node">
<title>88b</title>
<polygon fill="#d3d3d3" stroke="#000000" points="110,-218 74,-218 74,-182 110,-182 110,-218"></polygon>
<text text-anchor="middle" x="92" y="-196.3" font-family="Times,serif" font-size="14.00" fill="#000000">88</text>
</g>
<!-- 87b&#45;&gt;88b -->
<g id="edge15" class="edge">
<title>87b-&gt;88b</title>
<path fill="none" stroke="#000000" d="M59.0893,-200C64.027,-200 69.1187,-200 73.7778,-200"></path>
<polygon fill="#000000" stroke="#000000" points="59.0337,-197.5501 52.0336,-200 59.0336,-202.4501 59.0337,-197.5501"></polygon>
</g>
<!-- 89b -->
<g id="node19" class="node">
<title>89b</title>
<polygon fill="#d3d3d3" stroke="#000000" points="168,-218 132,-218 132,-182 168,-182 168,-218"></polygon>
<text text-anchor="middle" x="150" y="-196.3" font-family="Times,serif" font-size="14.00" fill="#000000">89</text>
</g>
<!-- 88b&#45;&gt;89b -->
<g id="edge16" class="edge">
<title>88b-&gt;89b</title>
<path fill="none" stroke="#000000" d="M117.0893,-200C122.027,-200 127.1187,-200 131.7778,-200"></path>
<polygon fill="#000000" stroke="#000000" points="117.0337,-197.5501 110.0336,-200 117.0336,-202.4501 117.0337,-197.5501"></polygon>
</g>
<!-- 90b -->
<g id="node20" class="node">
<title>90b</title>
<polygon fill="#d3d3d3" stroke="#000000" points="226,-218 190,-218 190,-182 226,-182 226,-218"></polygon>
<text text-anchor="middle" x="208" y="-203.8" font-family="Times,serif" font-size="14.00" fill="#000000">90</text>
<text text-anchor="middle" x="208" y="-188.8" font-family="Times,serif" font-size="14.00" fill="#000000">(lib)</text>
</g>
<!-- 89b&#45;&gt;90b -->
<g id="edge17" class="edge">
<title>89b-&gt;90b</title>
<path fill="none" stroke="#000000" d="M175.0893,-200C180.027,-200 185.1187,-200 189.7778,-200"></path>
<polygon fill="#000000" stroke="#000000" points="175.0337,-197.5501 168.0336,-200 175.0336,-202.4501 175.0337,-197.5501"></polygon>
</g>
<!-- 91b -->
<g id="node21" class="node">
<title>91b</title>
<polygon fill="#ffffff" stroke="#000000" points="284,-218 248,-218 248,-182 284,-182 284,-218"></polygon>
<text text-anchor="middle" x="266" y="-196.3" font-family="Times,serif" font-size="14.00" fill="#000000">91n</text>
</g>
<!-- 90b&#45;&gt;91b -->
<g id="edge18" class="edge">
<title>90b-&gt;91b</title>
<path fill="none" stroke="#000000" d="M233.0893,-200C238.027,-200 243.1187,-200 247.7778,-200"></path>
<polygon fill="#000000" stroke="#000000" points="233.0337,-197.5501 226.0336,-200 233.0336,-202.4501 233.0337,-197.5501"></polygon>
</g>
<!-- 92b -->
<g id="node22" class="node">
<title>92b</title>
<polygon fill="#ffffff" stroke="#000000" points="342,-218 306,-218 306,-182 342,-182 342,-218"></polygon>
<text text-anchor="middle" x="324" y="-196.3" font-family="Times,serif" font-size="14.00" fill="#000000">92n</text>
</g>
<!-- 91b&#45;&gt;92b -->
<g id="edge19" class="edge">
<title>91b-&gt;92b</title>
<path fill="none" stroke="#000000" d="M291.0893,-200C296.027,-200 301.1187,-200 305.7778,-200"></path>
<polygon fill="#000000" stroke="#000000" points="291.0337,-197.5501 284.0336,-200 291.0336,-202.4501 291.0337,-197.5501"></polygon>
</g>
<!-- 93b -->
<g id="node23" class="node">
<title>93b</title>
<polygon fill="#ffffff" stroke="#000000" points="400,-218 364,-218 364,-182 400,-182 400,-218"></polygon>
<text text-anchor="middle" x="382" y="-203.8" font-family="Times,serif" font-size="14.00" fill="#000000">93n</text>
<text text-anchor="middle" x="382" y="-188.8" font-family="Times,serif" font-size="14.00" fill="#000000">(hb)</text>
</g>
<!-- 92b&#45;&gt;93b -->
<g id="edge20" class="edge">
<title>92b-&gt;93b</title>
<path fill="none" stroke="#000000" d="M349.0893,-200C354.027,-200 359.1187,-200 363.7778,-200"></path>
<polygon fill="#000000" stroke="#000000" points="349.0337,-197.5501 342.0336,-200 349.0336,-202.4501 349.0337,-197.5501"></polygon>
</g>
<!-- 94b -->
<g id="node24" class="node">
<title>94b</title>
<polygon fill="none" stroke="transparent" points="458,-218 422,-218 422,-182 458,-182 458,-218"></polygon>
</g>
<!-- 93b&#45;&gt;94b -->
</g>
</svg>