<svg width="342pt" height="182pt" viewBox="0.00 0.00 342.00 182.00" xmlns="http://www.w3.org/2000/svg" xmlns:xlink="http://www.w3.org/1999/xlink">
<g id="graph0" class="graph" transform="scale(1 1) rotate(0) translate(4 178)">
<title>%3</title>
<polygon fill="#ffffff" stroke="transparent" points="-4,4 -4,-178 338,-178 338,4 -4,4"></polygon>
<g id="clust1" class="cluster">
<title>cluster_instance</title>
<polygon fill="none" stroke="#000000" points="8,-8 8,-166 326,-166 326,-8 8,-8"></polygon>
<text text-anchor="middle" x="167" y="-150.8" font-family="Times,serif" font-size="14.00" fill="#000000">Transaction Instance</text>
</g>
<g id="clust2" class="cluster">
<title>cluster_actions</title>
<polygon fill="none" stroke="#000000" stroke-dasharray="5,2" points="16,-16 16,-91 318,-91 318,-16 16,-16"></polygon>
<text text-anchor="middle" x="167" y="-75.8" font-family="Times,serif" font-size="14.00" fill="#000000">action list</text>
</g>
<!-- xact_header -->
<g id="node1" class="node">
<title>xact_header</title>
<polygon fill="#d3d3d3" stroke="#000000" points="145.5,-135 18.5,-135 18.5,-99 145.5,-99 145.5,-135"></polygon>
<text text-anchor="middle" x="82" y="-113.3" font-family="Times,serif" font-size="14.00" fill="#000000">Transaction Header</text>
</g>
<!-- xact_exts -->
<g id="node2" class="node">
<title>xact_exts</title>
<polygon fill="#d3d3d3" stroke="#000000" points="318.5,-135 169.5,-135 169.5,-99 318.5,-99 318.5,-135"></polygon>
<text text-anchor="middle" x="244" y="-113.3" font-family="Times,serif" font-size="14.00" fill="#000000">Transaction Extensions</text>
</g>
<!-- xact_header&#45;&gt;xact_exts -->
<g id="edge4" class="edge">
<title>xact_header-&gt;xact_exts</title>
<path fill="none" stroke="transparent" d="M145.5977,-117C151.4315,-117 157.2653,-117 163.0991,-117"></path>
<polygon fill="transparent" stroke="transparent" points="163.4295,-119.1001 169.4295,-117 163.4294,-114.9001 163.4295,-119.1001"></polygon>
</g>
<!-- bn -->
<g id="node6" class="node">
<title>bn</title>
<polygon fill="#d3d3d3" stroke="#000000" points="310,-60 248,-60 248,-24 310,-24 310,-60"></polygon>
<text text-anchor="middle" x="279" y="-38.3" font-family="Times,serif" font-size="14.00" fill="#000000">action n</text>
</g>
<!-- xact_exts&#45;&gt;bn -->
<g id="edge5" class="edge">
<title>xact_exts-&gt;bn</title>
<path fill="none" stroke="transparent" d="M252.4725,-98.8446C257.0814,-88.9684 262.8407,-76.627 267.8143,-65.9694"></path>
<polygon fill="transparent" stroke="transparent" points="269.8498,-66.5734 270.4842,-60.2482 266.0438,-64.7972 269.8498,-66.5734"></polygon>
</g>
<!-- b1 -->
<g id="node3" class="node">
<title>b1</title>
<polygon fill="#d3d3d3" stroke="#000000" points="86,-60 24,-60 24,-24 86,-24 86,-60"></polygon>
<text text-anchor="middle" x="55" y="-38.3" font-family="Times,serif" font-size="14.00" fill="#000000">action 1</text>
</g>
<!-- b2 -->
<g id="node4" class="node">
<title>b2</title>
<polygon fill="#d3d3d3" stroke="#000000" points="172,-60 110,-60 110,-24 172,-24 172,-60"></polygon>
<text text-anchor="middle" x="141" y="-38.3" font-family="Times,serif" font-size="14.00" fill="#000000">action 2</text>
</g>
<!-- b1&#45;&gt;b2 -->
<g id="edge1" class="edge">
<title>b1-&gt;b2</title>
<path fill="none" stroke="#000000" d="M86.2422,-42C92.0018,-42 97.7615,-42 103.5211,-42"></path>
<polygon fill="#000000" stroke="#000000" points="103.771,-44.1001 109.7709,-42 103.7709,-39.9001 103.771,-44.1001"></polygon>
</g>
<!-- bd -->
<g id="node5" class="node">
<title>bd</title>
<polygon fill="none" stroke="transparent" points="224,-60 196,-60 196,-24 224,-24 224,-60"></polygon>
<text text-anchor="middle" x="210" y="-38.3" font-family="Times,serif" font-size="14.00" fill="#000000">...</text>
</g>
<!-- b2&#45;&gt;bd -->
<g id="edge2" class="edge">
<title>b2-&gt;bd</title>
<path fill="none" stroke="#000000" d="M172.2656,-42C178.0388,-42 183.812,-42 189.5851,-42"></path>
<polygon fill="#000000" stroke="#000000" points="189.8496,-44.1001 195.8496,-42 189.8496,-39.9001 189.8496,-44.1001"></polygon>
</g>
<!-- bd&#45;&gt;bn -->
<g id="edge3" class="edge">
<title>bd-&gt;bn</title>
<path fill="none" stroke="#000000" d="M224.0156,-42C229.7991,-42 235.5826,-42 241.366,-42"></path>
<polygon fill="#000000" stroke="#000000" points="241.6418,-44.1001 247.6417,-42 241.6417,-39.9001 241.6418,-44.1001"></polygon>
</g>
</g>
</svg>