<svg width="435pt" height="321pt" viewBox="0.00 0.00 435.00 321.00" xmlns="http://www.w3.org/2000/svg" xmlns:xlink="http://www.w3.org/1999/xlink">
<g id="graph0" class="graph" transform="scale(1 1) rotate(0) translate(4 317)">
<title>%3</title>
<polygon fill="#ffffff" stroke="transparent" points="-4,4 -4,-317 431,-317 431,4 -4,4"></polygon>
<g id="clust1" class="cluster">
<title>cluster_accts</title>
<polygon fill="none" stroke="#000000" stroke-dasharray="5,2" points="8,-122 8,-259 80,-259 80,-122 8,-122"></polygon>
<text text-anchor="middle" x="44" y="-243.8" font-family="Times,serif" font-size="14.00" fill="#000000">Accounts</text>
</g>
<g id="clust2" class="cluster">
<title>cluster_perms</title>
<polygon fill="none" stroke="#000000" stroke-dasharray="5,2" points="114,-8 114,-305 214,-305 214,-8 114,-8"></polygon>
<text text-anchor="middle" x="164" y="-289.8" font-family="Times,serif" font-size="14.00" fill="#000000">Permissions</text>
</g>
<g id="clust3" class="cluster">
<title>cluster_alice_perm</title>
<polygon fill="none" stroke="#000000" points="122,-48 122,-274 206,-274 206,-48 122,-48"></polygon>
<text text-anchor="middle" x="164" y="-258.8" font-family="Times,serif" font-size="14.00" fill="#000000">@alice</text>
<text text-anchor="middle" x="164" y="-243.8" font-family="Times,serif" font-size="14.00" fill="#000000">permissions</text>
</g>
<g id="clust4" class="cluster">
<title>cluster_auths</title>
<polygon fill="none" stroke="#000000" stroke-dasharray="5,2" points="248,-46 248,-298 419,-298 419,-46 248,-46"></polygon>
<text text-anchor="middle" x="333.5" y="-282.8" font-family="Times,serif" font-size="14.00" fill="#000000">Authorities</text>
</g>
<!-- @alice -->
<g id="node1" class="node">
<title>@alice</title>
<polygon fill="none" stroke="#000000" points="72,-227.5 16,-227.5 16,-204.5 72,-204.5 72,-227.5"></polygon>
<text text-anchor="middle" x="44" y="-212.3" font-family="Times,serif" font-size="14.00" fill="#000000">@alice</text>
</g>
<!-- owner -->
<g id="node5" class="node">
<title>owner</title>
<polygon fill="none" stroke="#000000" points="191,-227.5 137,-227.5 137,-204.5 191,-204.5 191,-227.5"></polygon>
<text text-anchor="middle" x="164" y="-212.3" font-family="Times,serif" font-size="14.00" fill="#000000">owner</text>
</g>
<!-- @alice&#45;&gt;owner -->
<g id="edge5" class="edge">
<title>@alice-&gt;owner</title>
<path fill="none" stroke="#000000" d="M72.1347,-216C72.1347,-216 99.1578,-216 116.8521,-216"></path>
<polygon fill="#000000" stroke="#000000" points="117.0038,-217.7501 122.0037,-216 117.0037,-214.2501 117.0038,-217.7501"></polygon>
</g>
<!-- @bob -->
<g id="node2" class="node">
<title>@bob</title>
<polygon fill="none" stroke="#000000" points="71,-190.5 17,-190.5 17,-167.5 71,-167.5 71,-190.5"></polygon>
<text text-anchor="middle" x="44" y="-175.3" font-family="Times,serif" font-size="14.00" fill="#000000">@bob</text>
</g>
<!-- more_accts -->
<g id="node3" class="node">
<title>more_accts</title>
<polygon fill="none" stroke="transparent" points="71,-153.5 17,-153.5 17,-130.5 71,-130.5 71,-153.5"></polygon>
<text text-anchor="middle" x="44" y="-138.3" font-family="Times,serif" font-size="14.00" fill="#000000">...</text>
</g>
<!-- active -->
<g id="node4" class="node">
<title>active</title>
<polygon fill="none" stroke="#000000" points="191,-190.5 137,-190.5 137,-167.5 191,-167.5 191,-190.5"></polygon>
<text text-anchor="middle" x="164" y="-175.3" font-family="Times,serif" font-size="14.00" fill="#000000">active</text>
</g>
<!-- active&#45;&gt;owner -->
<g id="edge1" class="edge">
<title>active-&gt;owner</title>
<path fill="none" stroke="#000000" d="M164,-190.707C164,-190.707 164,-199.4958 164,-199.4958"></path>
<polygon fill="#000000" stroke="#000000" points="162.2501,-199.4958 164,-204.4958 165.7501,-199.4958 162.2501,-199.4958"></polygon>
</g>
<!-- active_auth -->
<g id="node10" class="node">
<title>active_auth</title>
<polygon fill="none" stroke="#000000" points="264.5,-242 264.5,-263 403.5,-263 403.5,-242 264.5,-242"></polygon>
<text text-anchor="start" x="268" y="-248.8" font-family="Times,serif" font-size="14.00" fill="#000000">@alice active authority</text>
<polygon fill="#d3d3d3" stroke="transparent" points="264.5,-221 264.5,-242 403.5,-242 403.5,-221 264.5,-221"></polygon>
<polygon fill="none" stroke="#000000" points="264.5,-221 264.5,-242 403.5,-242 403.5,-221 264.5,-221"></polygon>
<text text-anchor="start" x="307" y="-227.8" font-family="Times,serif" font-size="14.00" fill="#000000">threshold</text>
<polygon fill="none" stroke="#000000" points="264.5,-200 264.5,-221 403.5,-221 403.5,-200 264.5,-200"></polygon>
<text text-anchor="start" x="330" y="-206.8" font-family="Times,serif" font-size="14.00" fill="#000000">2</text>
<polygon fill="#d3d3d3" stroke="transparent" points="264.5,-179 264.5,-200 352.5,-200 352.5,-179 264.5,-179"></polygon>
<polygon fill="none" stroke="#000000" points="264.5,-179 264.5,-200 352.5,-200 352.5,-179 264.5,-179"></polygon>
<text text-anchor="start" x="268.5" y="-185.8" font-family="Times,serif" font-size="14.00" fill="#000000">accounts/keys</text>
<polygon fill="#d3d3d3" stroke="transparent" points="352.5,-179 352.5,-200 403.5,-200 403.5,-179 352.5,-179"></polygon>
<polygon fill="none" stroke="#000000" points="352.5,-179 352.5,-200 403.5,-200 403.5,-179 352.5,-179"></polygon>
<text text-anchor="start" x="355.5" y="-185.8" font-family="Times,serif" font-size="14.00" fill="#000000">weights</text>
<polygon fill="none" stroke="#000000" points="264.5,-158 264.5,-179 352.5,-179 352.5,-158 264.5,-158"></polygon>
<text text-anchor="start" x="273.5" y="-164.8" font-family="Times,serif" font-size="14.00" fill="#000000">bob@active</text>
<polygon fill="none" stroke="#000000" points="352.5,-158 352.5,-179 403.5,-179 403.5,-158 352.5,-158"></polygon>
<text text-anchor="start" x="374" y="-164.8" font-family="Times,serif" font-size="14.00" fill="#000000">2</text>
<polygon fill="none" stroke="#000000" points="264.5,-137 264.5,-158 352.5,-158 352.5,-137 264.5,-137"></polygon>
<text text-anchor="start" x="270.5" y="-143.8" font-family="Times,serif" font-size="14.00" fill="#000000">stacy@active</text>
<polygon fill="none" stroke="#000000" points="352.5,-137 352.5,-158 403.5,-158 403.5,-137 352.5,-137"></polygon>
<text text-anchor="start" x="374" y="-143.8" font-family="Times,serif" font-size="14.00" fill="#000000">2</text>
<polygon fill="none" stroke="#000000" points="264.5,-116 264.5,-137 352.5,-137 352.5,-116 264.5,-116"></polygon>
<text text-anchor="start" x="268.5" y="-122.8" font-family="Times,serif" font-size="14.00" fill="#000000">EOS7Hnv4...</text>
<polygon fill="none" stroke="#000000" points="352.5,-116 352.5,-137 403.5,-137 403.5,-116 352.5,-116"></polygon>
<text text-anchor="start" x="374" y="-122.8" font-family="Times,serif" font-size="14.00" fill="#000000">1</text>
<polygon fill="none" stroke="#000000" points="264.5,-95 264.5,-116 352.5,-116 352.5,-95 264.5,-95"></polygon>
<text text-anchor="start" x="267.5" y="-101.8" font-family="Times,serif" font-size="14.00" fill="#000000">EOS3Wo1p...</text>
<polygon fill="none" stroke="#000000" points="352.5,-95 352.5,-116 403.5,-116 403.5,-95 352.5,-95"></polygon>
<text text-anchor="start" x="374" y="-101.8" font-family="Times,serif" font-size="14.00" fill="#000000">1</text>
</g>
<!-- active&#45;&gt;active_auth -->
<g id="edge6" class="edge">
<title>active-&gt;active_auth</title>
<path fill="none" stroke="#000000" d="M191.2331,-179C191.2331,-179 250.8267,-179 250.8267,-179"></path>
<polygon fill="#000000" stroke="#000000" points="250.8268,-180.7501 255.8267,-179 250.8267,-177.2501 250.8268,-180.7501"></polygon>
</g>
<!-- family -->
<g id="node6" class="node">
<title>family</title>
<polygon fill="none" stroke="#000000" points="191,-153.5 137,-153.5 137,-130.5 191,-130.5 191,-153.5"></polygon>
<text text-anchor="middle" x="164" y="-138.3" font-family="Times,serif" font-size="14.00" fill="#000000">family</text>
</g>
<!-- family&#45;&gt;active -->
<g id="edge2" class="edge">
<title>family-&gt;active</title>
<path fill="none" stroke="#000000" d="M164,-153.707C164,-153.707 164,-162.4958 164,-162.4958"></path>
<polygon fill="#000000" stroke="#000000" points="162.2501,-162.4958 164,-167.4958 165.7501,-162.4958 162.2501,-162.4958"></polygon>
</g>
<!-- friends -->
<g id="node7" class="node">
<title>friends</title>
<polygon fill="none" stroke="#000000" points="192,-116.5 136,-116.5 136,-93.5 192,-93.5 192,-116.5"></polygon>
<text text-anchor="middle" x="164" y="-101.3" font-family="Times,serif" font-size="14.00" fill="#000000">friends</text>
</g>
<!-- friends&#45;&gt;family -->
<g id="edge3" class="edge">
<title>friends-&gt;family</title>
<path fill="none" stroke="#000000" d="M164,-116.707C164,-116.707 164,-125.4958 164,-125.4958"></path>
<polygon fill="#000000" stroke="#000000" points="162.2501,-125.4958 164,-130.4958 165.7501,-125.4958 162.2501,-125.4958"></polygon>
</g>
<!-- lawyer -->
<g id="node8" class="node">
<title>lawyer</title>
<polygon fill="none" stroke="#000000" points="191.5,-79.5 136.5,-79.5 136.5,-56.5 191.5,-56.5 191.5,-79.5"></polygon>
<text text-anchor="middle" x="164" y="-64.3" font-family="Times,serif" font-size="14.00" fill="#000000">lawyer</text>
</g>
<!-- lawyer&#45;&gt;active -->
<g id="edge4" class="edge">
<title>lawyer-&gt;active</title>
<path fill="none" stroke="#000000" d="M136.4585,-68C120.6855,-68 104,-68 104,-68 104,-68 104,-179 104,-179 104,-179 131.8088,-179 131.8088,-179"></path>
<polygon fill="#000000" stroke="#000000" points="131.8089,-180.7501 136.8088,-179 131.8088,-177.2501 131.8089,-180.7501"></polygon>
</g>
<!-- more_perms -->
<g id="node9" class="node">
<title>more_perms</title>
<polygon fill="none" stroke="transparent" points="191,-39.5 137,-39.5 137,-16.5 191,-16.5 191,-39.5"></polygon>
<text text-anchor="middle" x="164" y="-24.3" font-family="Times,serif" font-size="14.00" fill="#000000">...</text>
</g>
<!-- more_auths -->
<g id="node11" class="node">
<title>more_auths</title>
<polygon fill="none" stroke="transparent" points="360.5,-77.5 306.5,-77.5 306.5,-54.5 360.5,-54.5 360.5,-77.5"></polygon>
<text text-anchor="middle" x="333.5" y="-62.3" font-family="Times,serif" font-size="14.00" fill="#000000">...</text>
</g>
</g>
</svg>